<?xml version="1.0" encoding="utf-8"?>
<!-- Generator: Adobe Illustrator 24.0.1, SVG Export Plug-In . SVG Version: 6.00 Build 0)  -->
<svg version="1.1" id="Calque_1" xmlns="http://www.w3.org/2000/svg" xmlns:xlink="http://www.w3.org/1999/xlink" x="0px" y="0px"
	 viewBox="0 0 50 50" style="enable-background:new 0 0 50 50;" xml:space="preserve">
<style type="text/css">
	.st0{fill:#E74C3C;}
</style>
<path class="st0" d="M46,7.1c-2.5-2.8-6.2-4.3-10-4.3c-2.9,0-5.6,0.9-7.9,2.7c-1.1,0.9-2.3,2-3.2,3.3c-0.9-1.3-2-2.4-3.2-3.3
	c-2.3-1.8-4.9-2.7-7.9-2.7c-3.9,0-7.5,1.5-10,4.3s-3.9,6.6-3.9,10.6c0,4.2,1.5,8.1,4.9,12.2c3,3.7,7.3,7.3,12.4,11.6
	c1.8,1.5,3.7,3.2,5.7,4.9c0.5,0.5,1.3,0.8,1.9,0.8c0.8,0,1.4-0.3,1.9-0.8c2-1.8,3.9-3.4,5.7-4.9c5.1-4.3,9.4-8,12.4-11.6
	c3.4-4.1,4.9-8,4.9-12.2C49.9,13.7,48.6,9.9,46,7.1z"/>
</svg>
