<?xml version="1.0" encoding="utf-8"?>
<!-- Generator: Adobe Illustrator 24.0.1, SVG Export Plug-In . SVG Version: 6.00 Build 0)  -->
<svg version="1.1" id="Calque_1" xmlns="http://www.w3.org/2000/svg" xmlns:xlink="http://www.w3.org/1999/xlink" x="0px" y="0px"
	 viewBox="0 0 1606.9 512" style="enable-background:new 0 0 1606.9 512;" xml:space="preserve">
<style type="text/css">
	.st0{fill:#E74C3C;}
	.st1{fill:#F1C40F;}
</style>
<path class="st0" d="M1018.8,72.6C992.3,43.8,956,28,916.4,28c-29.6,0-56.6,9.3-80.4,27.8c-12,9.3-22.9,20.7-32.5,34
	c-9.6-13.3-20.5-24.7-32.5-34C747.1,37.3,720,28,690.5,28c-39.5,0-75.9,15.8-102.4,44.6c-26.2,28.4-40.6,67.2-40.6,109.3
	c0,43.3,16.1,82.9,50.8,124.7c31,37.4,75.5,75.4,127.1,119.3c17.6,15,37.6,32,58.3,50.2c5.5,4.8,12.5,7.4,19.8,7.4
	c7.3,0,14.3-2.6,19.8-7.4c20.7-18.1,40.7-35.2,58.3-50.2c51.6-43.9,96.1-81.9,127.1-119.3c34.6-41.8,50.8-81.4,50.8-124.7
	C1059.5,139.8,1045,101,1018.8,72.6z"/>
<g>
	<path class="st1" d="M432.7,158.5c-11.9-35.8-63.7-35.8-72.9-6.6c-9.3,29.2,23.9,47.7,75.6,65s84.9,63.7,78.3,104.8
		c-6.6,41.1-23.9,94.2-126,94.2c-65,0-99.5-39.8-118-70.3l58.4-34.5c0,0,19.9,42.4,57,42.4s51.7-11.9,51.7-41.1
		c0-34.5-120.7-47.7-139.3-106.1C278.8,146.6,304,63,390.2,68.3c54.4,4,84.9,30.5,99.5,50.4L432.7,158.5z"/>
	<path class="st1" d="M162.1,72.3c0,0,0,209.6,0,238.7c0,29.2-25.2,43.8-49.1,38.5C87.8,344.2,77.2,315,77.2,315l-57,38.5
		c0,0,11.9,57,90.2,62.3s123.3-42.4,123.3-82.2s0-260,0-260L162.1,72.3L162.1,72.3z"/>
</g>
<g>
	<path class="st1" d="M1450.5,158.5c-11.9-35.8-63.7-35.8-72.9-6.6s23.9,47.7,75.6,65s84.9,63.7,78.3,104.8
		c-6.6,41.1-23.9,94.2-126,94.2c-65,0-99.5-39.8-118-70.3l58.4-34.5c0,0,19.9,42.4,57,42.4c37.1,0,51.7-11.9,51.7-41.1
		c0-34.5-120.7-47.7-139.3-106.1c-18.6-59.7,6.6-143.2,92.8-137.9c54.4,4,84.9,30.5,99.5,50.4L1450.5,158.5z"/>
	<path class="st1" d="M1179.9,72.3c0,0,0,209.6,0,238.7c0,29.2-25.2,43.8-49.1,38.5c-25.2-5.3-35.8-34.5-35.8-34.5l-57,38.5
		c0,0,11.9,57,90.2,62.3c78.3,5.3,123.3-42.4,123.3-82.2s0-260,0-260L1179.9,72.3L1179.9,72.3z"/>
</g>
</svg>
